<?xml version="1.0" encoding="UTF-8"?><svg id="Layer_1" xmlns="http://www.w3.org/2000/svg" viewBox="0 0 485.52 99.38"><defs><style>.cls-1{fill:#fff;}.cls-2{isolation:isolate;opacity:.6;}.cls-3{fill:#f05023;}</style></defs><path class="cls-3" d="m390.89,80.48c-10.64-20.51-21.18-40.84-31.87-61.45-10.25,19.77-20.32,39.16-30.53,58.85-4.07-5.95-7.91-11.57-11.81-17.26.39-.28.6-.47.85-.6,7.78-4.19,11.29-10.68,10.77-19.47-.44-7.52-4.04-12.9-10.76-16.17-4.4-2.14-9.16-2.89-14.02-2.91-9.71-.04-19.41-.03-29.12-.03-.56,0-1.13.07-1.66.11v58.92h19.59v-16.48c2.75-.62,4.69-.33,6.23,2.35,2.57,4.47,5.64,8.66,8.45,13,.61.94,1.27,1.35,2.44,1.34,12.39-.05,24.77-.04,37.16,0,1.18,0,1.8-.37,2.32-1.42,2.97-6.08,6-12.13,9.02-18.18.3-.6.63-1.18,1.09-2.03.49.89.81,1.44,1.09,2.01,3.02,6.06,6.04,12.11,9.02,18.18.46.94.96,1.46,2.12,1.45,6.07-.06,12.15-.02,18.22-.03.39,0,.78-.09,1.41-.16Zm-287.83-8.44c2.51,1.6,4.71,3.24,7.11,4.5,8.8,4.63,18.3,5.73,28.05,4.97,4.83-.38,9.48-1.69,13.56-4.48,6.21-4.25,8.55-10.25,7.86-17.57-.59-6.26-4.38-10.27-9.87-12.44-4.88-1.92-10.08-3.04-15.13-4.5-2.22-.64-4.5-1.11-6.63-1.95-.72-.29-1.53-1.53-1.48-2.28.06-.75,1.06-1.54,1.81-2.07.47-.34,1.27-.37,1.89-.31,2.83.28,5.75.29,8.44,1.08,3.49,1.03,6.78,2.7,10.37,4.19,2.94-4.05,6.1-8.4,9.52-13.11-2.87-1.56-5.42-3.2-8.16-4.41-7.42-3.27-15.31-3.82-23.26-3.14-6.05.52-11.58,2.52-15.93,7.07-6.09,6.37-8.23,21.01,4.46,26.89,3.21,1.48,6.63,2.57,10.03,3.57,3.92,1.16,7.94,1.96,11.88,3.04,1.21.33,2.33,1.08,2.15,2.66-.18,1.62-1.41,2.29-2.75,2.27-3.3-.05-6.65-.07-9.9-.6-4.93-.8-9.31-3.09-13.43-6.09-3.49,4.17-6.91,8.26-10.62,12.69Zm126.89,8.47h19.73v-42.51h17.36v-16.46h-54.59v16.61h17.5v42.35Zm176.44-37.44c-.51-.95-.82-1.51-1.11-2.08-3.01-5.99-6.04-11.96-8.98-17.98-.57-1.16-1.19-1.67-2.54-1.66-5.83.08-11.66.03-17.5.04-.55,0-1.1.08-1.84.14,10.66,20.56,21.19,40.85,31.88,61.48,10.74-20.68,21.31-41.02,32.01-61.61-7.01,0-13.67-.02-20.32.04-.43,0-1.03.53-1.26.96-1.04,1.93-1.97,3.92-2.95,5.88-2.4,4.82-4.81,9.64-7.38,14.79Zm15.28,37.47c.8.05,1.31.1,1.83.1,5.84,0,11.67-.04,17.5.04,1.35.02,1.99-.47,2.55-1.63,2.96-6.08,6-12.13,9.02-18.18.27-.55.59-1.08.99-1.82.42.78.71,1.29.98,1.81,2.99,6,6.03,11.98,8.93,18.03.67,1.4,1.48,1.83,3,1.8,5.42-.09,10.84-.04,16.25-.04h2.79c-10.71-20.66-21.27-41.02-31.96-61.63-10.68,20.6-21.24,40.96-31.9,61.52Z"/><path class="cls-1" d="m292.27,49.62c0-3.76-.03-7.31.05-10.85,0-.33.75-.92,1.15-.92,3.15-.01,6.32-.13,9.43.2,4.14.44,5.94,2.4,5.85,5.76-.08,3.22-2.27,5.51-6.04,5.77-3.37.23-6.76.05-10.44.05Z"/><path class="cls-3" d="m0,0h99.38v99.38H0V0Z"/><g class="cls-2"><path class="cls-1" d="m25.03,23.92h15.93v18.04h17.4v-18.04h16v51.54h-16v-20.85h-17.4v20.85h-15.93V23.92Z"/></g><rect class="cls-3" x="168.94" y="71.93" width="41.98" height="8.53"/></svg>